<?xml version="1.0" encoding="UTF-8"?><svg fill="none" viewBox="0 0 24 24" xmlns="http://www.w3.org/2000/svg"><path d="m3 19v-13.3c-6e-5 -0.20528 0.06305-0.4056 0.18077-0.57377 0.11772-0.16816 0.28433-0.29603 0.47723-0.36623l9.671-3.516c0.0755-0.0275 0.1566-0.03637 0.2363-0.02587s0.1557 0.04007 0.2216 0.08619c0.0658 0.04612 0.1196 0.10744 0.1567 0.17876 0.0371 0.07131 0.0564 0.15053 0.0564 0.23092v4.953l6.316 2.105c0.1992 0.06635 0.3725 0.19371 0.4952 0.36405 0.1228 0.17033 0.1889 0.37498 0.1888 0.58495v9.279h2v2h-22v-2h2zm2 0h7v-15.144l-7 2.544v12.6zm14 0v-8.558l-5-1.667v10.225h5z" fill="#000"/></svg>
